<?xml version="1.0" encoding="utf-8"?>
<!-- Generator: Adobe Illustrator 19.0.0, SVG Export Plug-In . SVG Version: 6.00 Build 0)  -->
<svg version="1.1" id="Layer_1" xmlns="http://www.w3.org/2000/svg" xmlns:xlink="http://www.w3.org/1999/xlink" x="0px" y="0px"
	 viewBox="0 0 1920 375.8" style="enable-background:new 0 0 1920 375.8;" xml:space="preserve">
<style type="text/css">
	.st0{fill:url(#XMLID_16_);}
</style>
<linearGradient id="XMLID_16_" gradientUnits="userSpaceOnUse" x1="9.114726e-005" y1="187.8996" x2="1920.0001" y2="187.8996">
	<stop  offset="0" style="stop-color:#0652DD"/>
	<stop  offset="1" style="stop-color:#1B1464"/>
</linearGradient>
<path id="XMLID_7_" class="st0" d="M1920,32c-68.5-20.8-141.2-32-216.5-32c-129.4,0-251.1,33.1-357.1,91.2c0,0,0,0,0,0c0,0,0,0,0,0
	c-9.9,5.4-19.6,11-29.2,16.9c0,0,0,0,0,0c-106,58.2-227.7,91.2-357.1,91.2c-129.5,0-251.2-33.1-357.2-91.3c0,0,0,0,0,0
	c-9.5-5.8-19.2-11.4-28.9-16.8c0,0,0,0,0,0c0,0-0.1,0-0.1-0.1h0C467.7,33.1,345.9,0,216.5,0C141.2,0,68.5,11.2,0,32v343.8h1920V32z"
	/>
</svg>
