<?xml version="1.0" encoding="utf-8"?>
<!-- Generator: Adobe Illustrator 19.0.0, SVG Export Plug-In . SVG Version: 6.00 Build 0)  -->
<svg version="1.1" id="Layer_1" xmlns="http://www.w3.org/2000/svg" xmlns:xlink="http://www.w3.org/1999/xlink" x="0px" y="0px"
	 viewBox="0 0 541 559" style="enable-background:new 0 0 541 559;" xml:space="preserve">
<style type="text/css">
	.st0{fill:url(#XMLID_15_);}
	.st1{fill:#0652DD;}
	.st2{fill:#1B1464;}
	.st3{fill:none;}
</style>
<g id="XMLID_1811_">
	<linearGradient id="XMLID_15_" gradientUnits="userSpaceOnUse" x1="101" y1="284.0012" x2="442.4263" y2="284.0012">
		<stop  offset="0" style="stop-color:#1B1464"/>
		<stop  offset="1" style="stop-color:#0652DD"/>
	</linearGradient>
	<path id="XMLID_1815_" class="st0" d="M330.6,419.2C318.2,429.4,301,435,278.9,435H192V311h92.6c31.3,4,50.3,10.5,59,32
		c0.2,0.4,10.2,0.6,10.2,0.6c31.6,0,61.6,7.2,88.7,20.1c-2-19.6-8.3-36.6-19.3-50.9c-13.5-17.4-31.9-29-55.2-34.7
		c20.5-7.7,36.5-20,48-36.6c11.5-16.7,17.2-36,17.2-57.9c0-40.1-14.3-70.6-42.9-91.4C361.6,71.5,319.6,61,264.2,61h-82
		c16.8,19,29.4,48.5,36.6,75.9c0.1,0.3,0.2-3.9,0.2,1.1h45.2c25.9,0,44.9,3.3,56.9,12.2c12,8.9,18.1,22.8,18.1,43
		c0,36.2-23.8,49.8-71.2,54.8h-76v-35.6c0-0.1,3.4-2.4,2.8-2.4h-2.3c-31.4,0-62.3-5.7-89.3-17.8c-0.4-0.2-2.3,0.7-2.3,0.5V507h180.8
		c32.7,0,60.5-4.9,83.7-15.5c-15.9-21.5-27.9-46.3-34.8-72.8C330.8,419.1,330.7,419.1,330.6,419.2z"/>
	<path id="XMLID_1814_" class="st1" d="M186.9,135.8c-1.6-5.6-2.3-11.1-4.4-16.5c-1-2.7-1.6-5.4-2.7-8
		c-7.9-18.4-18.4-34.3-31.6-49.1c-0.7-0.8-1.1-1.2-1.7-1.2h0c-4-5-8.2-11-12.5-14.7c-0.1-0.1-0.1-0.7-0.3-0.8c-2-1.6-3.9-3.5-6-5.1
		c-0.3-0.2-0.5-0.5-0.7-0.7C95.4,15.1,55.6,0.3,12.5,0.3c-1.9,0-4.8-0.2-6.6-0.3C5.8,0,3.5,0,3.4,0C2.7,0,0,0,0,0v0.5
		c0,34.7,11.7,66.6,26.6,93.9c0.2,0,1.6,0.1,1.8,0.1c36,7.7,64.1,36.1,71.8,72.3c0,0.1,0.3,0.2,0.3,0.2c0.7,0.4,1.6,0.8,2.3,1.1
		c0.4,0.2,0.8,0.4,1.2,0.5c2.3,1.2,4.8,2.4,7.2,3.6c9.6,4.6,19.8,8.3,30.3,11.2c7.9,2.2,16,4.2,24.4,5.3c8.6,1.2,17.6,2.2,26.6,2.2
		H192v-2.5C192,170.3,191.6,152.6,186.9,135.8z"/>
	<path id="XMLID_1813_" class="st2" d="M541,557c0-33.4-8.8-64.6-23.7-91.4c-0.1,0-0.1-0.1-0.1-0.1c-0.1-0.1-0.1-0.1-0.1-0.2
		c-34.5-8.2-63.2-35.3-69-69.7l-5.6-2.2c-26.2-13.8-56.3-20.4-88.7-20.4H345v7.4c0,5.1,2.5,7.1,2.8,10c2.8,30.5,10.9,53,26.9,76.6
		c3.4,5,11,15.8,11.2,16.1c34.3,46,89.5,75.8,151.1,75.8c2.8,0,3.4,0.1,3.8,0C540.9,559,541,558.6,541,557z"/>
	<path id="XMLID_1812_" class="st3" d="M103,168.2c-0.7-0.4-1.5-0.8-2.2-1.1"/>
</g>
</svg>
