<?xml version="1.0" encoding="utf-8"?>
<!-- Generator: Adobe Illustrator 19.0.0, SVG Export Plug-In . SVG Version: 6.00 Build 0)  -->
<svg version="1.1" id="Layer_1" xmlns="http://www.w3.org/2000/svg" xmlns:xlink="http://www.w3.org/1999/xlink" x="0px" y="0px"
	 viewBox="0 0 541 559" style="enable-background:new 0 0 541 559;" xml:space="preserve">
<style type="text/css">
	.st0{fill:#FFFFFF;}
</style>
<g id="XMLID_2050_">
	<path id="XMLID_2054_" class="st0" d="M328.2,419.7c-12.4,10.2-29.6,16.3-51.7,16.3H192V311h90.2c31.3,4,50.3,10.5,59,32
		c0.2,0.4,10.2,0.6,10.2,0.6c31.6,0,61.6,7.2,88.7,20.1c-2-19.6-8.3-36.6-19.3-50.9c-13.5-17.4-31.9-29-55.2-34.7
		c20.5-7.7,36.5-20,48-36.6c11.5-16.7,17.2-36,17.2-57.9c0-40.1-14.3-70.1-42.9-90.9C359.2,72,317.2,62,261.8,62h-82
		c16.8,18,29.4,48,36.6,75.4c0.1,0.3,0.2-4.4,0.2,0.6h45.2c25.9,0,44.9,3.3,56.9,12.2c12,8.9,18.1,22.8,18.1,43
		c0,36.2-23.8,49.8-71.2,54.8H192v-35.6c0-0.1,1.1-2.4,0.5-2.4h-2.3c-31.4,0-61.6-5.7-88.6-17.8c-0.4-0.2-1.6,0.7-1.6,0.5V507h179.4
		c32.7,0,60.5-4.9,83.8-15.5c-15.9-21.5-27.9-46-34.8-72.5C328.4,419.3,328.3,419.6,328.2,419.7z"/>
	<path id="XMLID_2053_" class="st0" d="M185.7,135.8c-1.6-5.6-2.9-11.1-5-16.5c-1-2.7-1.9-5.4-3-8c-7.9-18.4-18.6-33.8-31.8-48.6
		c-0.7-0.8-1.2-0.7-1.9-0.7h0c-4-5-8.2-11.5-12.5-15.2c-0.1-0.1-0.1-1-0.3-1c-2-1.6-3.9-3.7-6-5.3c-0.3-0.2-0.5-0.6-0.7-0.7
		C93,15.1,53.3,0.4,10.1,0.4c-1.9,0-4.8-0.2-6.6-0.3C3.4,0,2.3,0,2.2,0C1.5,0,0,0,0,0v0.5c0,34.7,10.5,66.6,25.4,93.9
		c0.2,0,1,0.1,1.2,0.1c36,7.7,63.8,36.1,71.5,72.3c0,0.1,0.2,0.2,0.2,0.2c0.7,0.4,1.5,0.8,2.3,1.1c0.4,0.2,0.8,0.4,1.1,0.5
		c2.3,1.2,4.7,2.4,7.2,3.6c9.6,4.6,19.8,8.3,30.3,11.2c7.9,2.2,16,4.2,24.4,5.3c8.6,1.2,17.6,2.2,26.6,2.2h1.8v-2.5
		C192,170.3,190.4,152.6,185.7,135.8z"/>
	<path id="XMLID_2052_" class="st0" d="M538.6,557c0-33.4-8.8-64.6-23.7-91.4c-0.1,0-0.1-0.1-0.1-0.1c-0.1-0.1-0.1-0.1-0.1-0.2
		c-34.5-8.2-63.2-35.3-69-69.7l-5.6-2.7c-26.2-13.8-56.3-20.9-88.7-20.9H345v8.4c0,5.1,1.4,7.1,1.6,10c2.8,30.5,10.3,53,26.3,76.6
		c3.4,5,10.7,15.8,10.9,16.1c34.3,46,89.4,75.8,151,75.8c2.8,0,3.4,0.1,3.7,0C538.6,559,538.6,558.6,538.6,557z"/>
	<path id="XMLID_2051_" class="st0" d="M100.7,168.2c-0.7-0.4-1.5-0.8-2.2-1.1"/>
</g>
</svg>
